<?xml version="1.0" standalone="no"?>
<!DOCTYPE svg PUBLIC "-//W3C//DTD SVG 20010904//EN"
 "http://www.w3.org/TR/2001/REC-SVG-20010904/DTD/svg10.dtd">
<svg version="1.0" xmlns="http://www.w3.org/2000/svg"
 width="1115.000000pt" height="1115.000000pt" viewBox="0 0 1115.000000 1115.000000"
 preserveAspectRatio="xMidYMid meet">
<metadata>
Created by potrace 1.14, written by Peter Selinger 2001-2017
</metadata>
<g transform="translate(0.000000,1115.000000) scale(0.100000,-0.100000)"
fill="#000000" stroke="none">
<path d="M5377 11022 c-314 -202 -545 -351 -647 -417 -156 -101 -578 -373
-687 -444 -57 -36 -160 -103 -229 -148 -69 -45 -174 -113 -232 -150 -125 -80
-540 -348 -562 -363 -78 -52 -230 -149 -249 -160 -14 -7 -30 -17 -35 -22 -6
-5 -47 -32 -91 -60 -44 -28 -111 -72 -150 -97 -38 -25 -78 -50 -87 -56 -10 -5
-73 -46 -140 -90 -68 -43 -166 -107 -218 -140 -107 -70 -231 -150 -352 -228
-46 -30 -225 -145 -398 -257 -173 -112 -353 -228 -400 -258 -47 -30 -114 -74
-150 -97 -36 -23 -114 -74 -175 -113 -60 -40 -207 -134 -325 -210 l-215 -139
-3 -1990 -2 -1990 52 -33 c91 -58 180 -115 288 -185 58 -37 137 -88 175 -113
39 -25 110 -72 159 -104 48 -32 90 -58 92 -58 3 0 10 -5 17 -10 12 -11 243
-161 299 -195 24 -14 419 -271 763 -496 160 -105 298 -192 308 -196 9 -3 17
-9 17 -14 0 -5 4 -9 10 -9 5 0 62 -35 127 -78 105 -69 194 -127 571 -370 53
-34 178 -115 277 -179 99 -65 239 -156 312 -203 214 -138 440 -285 568 -368
66 -43 138 -89 160 -102 22 -13 45 -28 50 -33 6 -4 59 -40 119 -78 263 -170
941 -608 1045 -676 63 -41 120 -77 127 -80 7 -2 23 2 36 10 39 25 363 234 666
430 94 62 247 161 340 220 314 204 457 296 472 307 8 5 62 40 120 78 58 37
237 153 397 257 161 105 301 195 310 200 17 10 64 41 263 171 41 27 80 51 85
54 6 3 51 31 100 64 50 32 137 89 195 127 58 38 220 142 360 233 140 91 260
169 266 174 5 5 21 15 34 22 14 7 83 51 155 98 71 47 175 114 230 150 55 35
126 82 158 103 32 22 59 39 61 39 2 0 67 42 145 93 78 50 187 122 244 158 56
36 237 154 402 260 165 107 348 226 408 264 l107 69 0 1988 0 1987 -67 44
c-212 138 -784 506 -818 527 -22 13 -44 28 -50 33 -5 4 -46 31 -90 59 -44 29
-201 130 -350 226 -148 96 -315 203 -370 239 -55 35 -145 93 -200 129 -304
197 -338 219 -835 539 -169 109 -212 137 -310 201 -58 38 -113 73 -123 79 -9
5 -69 44 -133 85 -63 41 -123 80 -132 85 -9 6 -19 12 -22 15 -3 3 -13 10 -22
15 -20 12 -190 121 -343 221 -113 73 -433 280 -563 363 -164 105 -328 211
-337 218 -5 5 -28 20 -50 33 -22 13 -98 62 -170 108 -71 47 -152 99 -180 117
-27 18 -108 70 -180 116 -71 47 -146 94 -165 106 l-36 22 -197 -127z m323
-714 c58 -37 110 -71 115 -76 6 -4 42 -27 80 -51 39 -25 108 -69 155 -99 47
-31 117 -75 155 -100 39 -25 96 -62 128 -84 32 -22 74 -48 93 -59 20 -11 41
-24 47 -30 7 -5 80 -53 162 -106 83 -53 200 -128 260 -167 61 -40 128 -83 150
-96 22 -13 42 -27 45 -30 3 -3 23 -17 45 -30 22 -13 96 -61 165 -105 69 -45
172 -112 230 -149 58 -37 155 -100 216 -139 60 -40 157 -102 215 -139 57 -37
154 -100 216 -140 62 -40 152 -98 200 -129 48 -31 180 -116 293 -189 113 -73
232 -150 265 -171 33 -21 67 -43 75 -49 8 -6 89 -58 180 -116 91 -58 188 -121
215 -139 28 -17 86 -55 130 -83 44 -28 88 -57 97 -64 10 -7 148 -96 308 -198
159 -102 288 -189 287 -193 -1 -4 -39 -31 -85 -60 -45 -29 -200 -128 -344
-221 -307 -198 -414 -267 -483 -311 -27 -18 -108 -70 -180 -117 -71 -46 -189
-122 -262 -168 -72 -47 -163 -105 -202 -130 -80 -52 -222 -143 -471 -303 -96
-62 -220 -142 -275 -178 -122 -79 -446 -288 -480 -309 -13 -8 -97 -62 -187
-120 -89 -58 -167 -107 -173 -109 -5 -2 -12 -7 -15 -10 -4 -6 -191 -127 -513
-332 -393 -252 -693 -561 -922 -952 l-57 -98 -29 53 c-16 29 -37 68 -46 86 -9
17 -20 32 -25 32 -4 0 -8 5 -8 11 0 22 -160 241 -255 348 -59 68 -211 217
-275 271 -36 30 -67 57 -70 60 -20 21 -216 157 -375 258 -104 67 -198 127
-208 134 -9 7 -66 44 -125 81 -122 78 -470 302 -810 522 -128 83 -244 157
-257 165 -32 19 -318 203 -450 290 -55 35 -108 69 -117 75 -10 5 -91 57 -179
115 -89 58 -190 122 -223 143 -34 21 -140 89 -236 152 -96 63 -242 157 -325
210 -82 52 -231 148 -330 212 -99 64 -211 135 -248 159 l-69 43 40 28 c40 28
700 455 747 483 27 16 579 372 845 545 85 55 183 119 217 140 34 22 215 139
402 260 188 121 365 236 395 255 30 19 128 82 218 139 90 58 165 108 168 111
3 4 12 10 20 13 8 4 41 24 72 45 153 99 415 268 430 277 10 6 225 145 480 310
254 165 466 302 471 304 5 2 41 25 80 52 39 26 76 45 81 41 6 -3 58 -36 116
-74z m-4926 -3594 c16 -9 38 -25 49 -35 12 -10 24 -19 28 -19 5 0 51 -28 103
-62 52 -35 135 -88 183 -119 316 -204 759 -489 818 -528 39 -25 78 -50 88 -56
10 -5 98 -62 195 -124 97 -63 218 -141 267 -173 50 -32 95 -61 100 -66 6 -4
28 -19 50 -32 22 -13 92 -58 155 -98 63 -41 161 -104 218 -141 57 -36 166
-106 242 -156 77 -49 192 -124 257 -165 64 -41 167 -107 227 -146 61 -40 143
-92 181 -117 423 -272 474 -307 570 -388 373 -315 619 -735 709 -1214 24 -124
26 -141 32 -289 l7 -139 -39 44 c-53 60 -198 204 -259 258 -112 99 -271 211
-530 374 -66 42 -124 80 -130 84 -5 5 -41 28 -80 52 -71 45 -987 634 -1190
765 -310 202 -466 302 -482 311 -10 6 -50 31 -88 56 -39 25 -135 88 -215 139
-80 51 -194 125 -255 165 -60 39 -131 84 -157 100 -26 17 -271 174 -543 350
-272 176 -504 325 -514 330 -10 6 -37 24 -60 39 l-41 29 0 519 0 518 38 -25
c20 -13 50 -32 66 -41z m9706 -461 l0 -518 -178 -115 c-304 -196 -362 -234
-668 -431 -165 -105 -328 -211 -364 -234 -36 -23 -231 -149 -435 -280 -203
-131 -399 -257 -435 -280 -36 -23 -186 -120 -335 -215 -148 -95 -279 -180
-290 -187 -22 -15 -204 -133 -400 -258 -69 -44 -195 -125 -280 -180 -84 -55
-217 -140 -295 -190 -479 -307 -536 -350 -769 -585 l-123 -125 6 135 c7 135 8
154 27 265 36 214 151 528 254 690 94 149 177 266 230 321 5 6 32 34 58 63 67
72 215 201 290 253 34 24 159 106 277 182 118 76 258 166 310 200 52 34 199
128 325 210 127 81 433 278 680 437 248 159 619 398 825 531 206 133 404 260
440 284 147 96 844 544 847 544 2 0 3 -233 3 -517z m-9656 -1375 c11 -10 24
-18 29 -18 4 0 29 -15 55 -32 26 -18 151 -99 277 -180 127 -81 237 -152 245
-157 111 -74 228 -149 235 -152 6 -2 57 -35 115 -73 58 -38 137 -89 175 -114
39 -25 112 -72 164 -106 90 -58 141 -91 346 -222 50 -32 135 -87 190 -122 55
-36 123 -79 150 -97 28 -18 88 -57 135 -87 47 -30 114 -74 150 -96 36 -23 72
-46 80 -52 22 -15 277 -179 341 -219 30 -19 101 -65 158 -103 57 -37 105 -68
107 -68 2 0 43 -26 91 -58 48 -33 178 -117 288 -187 199 -128 278 -183 345
-240 443 -380 697 -874 745 -1448 4 -54 3 -67 -7 -61 -7 4 -71 46 -143 92 -71
46 -157 102 -190 123 -33 21 -64 42 -70 46 -5 5 -35 24 -65 43 -30 19 -113 72
-185 119 -71 46 -152 98 -180 116 -83 54 -254 164 -355 230 -52 34 -167 108
-255 165 -148 96 -309 200 -703 456 -84 54 -189 122 -232 149 -44 28 -87 56
-97 62 -19 13 -207 136 -365 238 -51 33 -201 130 -333 215 -132 85 -282 182
-333 215 -51 33 -148 96 -216 141 -68 44 -129 84 -137 87 -8 4 -75 47 -149 96
-74 50 -171 113 -215 141 -44 28 -127 82 -185 120 -58 38 -116 75 -130 82
l-25 13 -3 522 -2 522 67 -42 c38 -23 77 -50 87 -59z m9656 -422 l0 -513 -127
-82 c-71 -45 -256 -166 -413 -267 -157 -102 -334 -217 -395 -256 -60 -39 -169
-110 -242 -157 -166 -108 -337 -219 -473 -306 -141 -91 -208 -135 -383 -249
-81 -53 -152 -96 -157 -96 -4 0 -10 -4 -12 -8 -2 -6 -176 -120 -753 -492 -47
-30 -328 -212 -625 -405 -297 -192 -579 -375 -625 -405 -288 -186 -350 -225
-357 -228 -14 -6 4 161 37 338 13 72 71 256 110 352 110 268 246 470 459 683
164 164 238 218 711 519 77 49 204 131 283 182 78 52 144 94 146 94 3 0 37 22
78 49 67 45 166 108 358 232 41 26 80 52 85 57 6 5 15 11 21 13 6 2 115 72
242 154 128 83 243 157 257 165 25 16 565 363 785 505 69 45 195 126 280 180
85 55 157 103 158 107 2 5 7 8 12 8 4 0 126 77 271 170 145 94 264 170 266
170 2 0 3 -231 3 -514z"/>
</g>
</svg>
